<svg xmlns="http://www.w3.org/2000/svg" xmlns:xlink="http://www.w3.org/1999/xlink" viewBox="0 0 128 56.93"><defs><style>.cls-1{fill:none;}.cls-2{clip-path:url(#clip-path);}.cls-3{fill:url(#radial-gradient);}.cls-4{fill:#c3c5c6;}.cls-5{clip-path:url(#clip-path-2);}.cls-6{fill:url(#radial-gradient-2);}.cls-7{fill:#99999c;}.cls-8{clip-path:url(#clip-path-3);}.cls-9{fill:url(#radial-gradient-3);}.cls-10{clip-path:url(#clip-path-4);}.cls-11{fill:url(#radial-gradient-4);}.cls-12{fill:#fff;}.cls-13{clip-path:url(#clip-path-5);}.cls-14{fill:url(#radial-gradient-5);}</style><clipPath id="clip-path"><path class="cls-1" d="M73.16,6.55c-4.09,1.1-7.14,3-6.82,4.15.17.62,1.23.93,2.79.93a21,21,0,0,0,5.19-.78c4.09-1.11,7.14-3,6.83-4.15a1,1,0,0,0-.1-.21.75.75,0,0,1,0,.4c-.19.53-.91.79-1.91.79A9.75,9.75,0,0,1,75.77,7a10.71,10.71,0,0,1-1.52-.71l-1.09.27"/></clipPath><radialGradient id="radial-gradient" cx="1616.78" cy="1502.9" r="0.02" gradientTransform="matrix(327.14, 0, 0, -327.27, -528835.37, 491862.62)" gradientUnits="userSpaceOnUse"><stop offset="0" stop-color="#e1df47"/><stop offset="0.22" stop-color="#e1da46"/><stop offset="0.48" stop-color="#dfcc42"/><stop offset="0.75" stop-color="#ddb43d"/><stop offset="1" stop-color="#db9936"/></radialGradient><clipPath id="clip-path-2"><path class="cls-1" d="M74.25,6.28A10.71,10.71,0,0,0,75.77,7a9.75,9.75,0,0,0,3.32.69c1,0,1.72-.26,1.91-.79a.75.75,0,0,0,0-.4s0,0-.06-.07a1,1,0,0,1-.27.75,1,1,0,0,1-.74.27,5.93,5.93,0,0,1-3.22-1.58,21.19,21.19,0,0,0-2.51.42"/></clipPath><radialGradient id="radial-gradient-2" cx="1616.89" cy="1502.85" r="0.02" gradientTransform="matrix(327.28, 0, 0, -327.41, -529103.88, 492064.83)" gradientUnits="userSpaceOnUse"><stop offset="0" stop-color="#b4b65e"/><stop offset="0.28" stop-color="#b3b15c"/><stop offset="0.6" stop-color="#b2a358"/><stop offset="0.94" stop-color="#b08c50"/><stop offset="1" stop-color="#af874e"/></radialGradient><clipPath id="clip-path-3"><path class="cls-1" d="M76.76,5.86A5.93,5.93,0,0,0,80,7.44a1,1,0,0,0,.74-.27A1,1,0,0,0,81,6.42a3.71,3.71,0,0,0-2.63-.66,13.2,13.2,0,0,0-1.6.1"/></clipPath><radialGradient id="radial-gradient-3" cx="1616.89" cy="1502.86" r="0.02" gradientTransform="matrix(327.27, 0, 0, -327.41, -529091.76, 492055.29)" gradientUnits="userSpaceOnUse"><stop offset="0" stop-color="#909060"/><stop offset="0.42" stop-color="#8f8b5d"/><stop offset="0.91" stop-color="#8d7d56"/><stop offset="1" stop-color="#8d7a54"/></radialGradient><clipPath id="clip-path-4"><path class="cls-1" d="M71.51,9.87a1.6,1.6,0,1,0,.13,0h-.13"/></clipPath><radialGradient id="radial-gradient-4" cx="716.08" cy="1822.47" r="0.02" gradientTransform="matrix(72.88, 0, 0, -72.91, -52113.73, 132881.95)" gradientUnits="userSpaceOnUse"><stop offset="0" stop-color="#1d1d1b"/><stop offset="0.04" stop-color="#1d1d1b"/><stop offset="0.09" stop-color="#232321"/><stop offset="0.16" stop-color="#343432"/><stop offset="0.2" stop-color="#41423f"/><stop offset="0.82" stop-color="#41423f"/><stop offset="0.99" stop-color="#1d1d1b"/><stop offset="1" stop-color="#1d1d1b"/></radialGradient><clipPath id="clip-path-5"><path class="cls-1" d="M71.56,10.52a1,1,0,0,0,.16,2,1,1,0,0,0,.93-1.09,1,1,0,0,0-1-.94h-.08"/></clipPath><radialGradient id="radial-gradient-5" cx="-35.08" cy="2088.77" r="0.02" gradientTransform="matrix(44.22, 0, 0, -44.23, 1622.73, 92405.66)" gradientUnits="userSpaceOnUse"><stop offset="0" stop-color="#fff"/><stop offset="0.45" stop-color="#fff"/><stop offset="0.75" stop-color="#cccdd0"/><stop offset="0.85" stop-color="#cacbce"/><stop offset="0.88" stop-color="#c4c5c7"/><stop offset="0.91" stop-color="#b8b9bc"/><stop offset="0.93" stop-color="#a8a9ab"/><stop offset="0.95" stop-color="#939395"/><stop offset="0.97" stop-color="#787979"/><stop offset="0.98" stop-color="#595959"/><stop offset="0.99" stop-color="#363635"/><stop offset="1" stop-color="#1d1d1b"/></radialGradient></defs><g id="Capa_2" data-name="Capa 2"><g id="Capa_1-2" data-name="Capa 1"><g class="cls-2"><rect class="cls-3" x="66.02" y="6.28" width="15.45" height="5.35"/></g><path class="cls-4" d="M74.64,0a1,1,0,0,0-.75.26c-.44.44-.32,1.35.23,2.41a9.91,9.91,0,0,1,3,.68c2,.76,3.49,1.92,3.83,2.87a7.54,7.54,0,0,0-2.29-3.87C77.24.89,75.65,0,74.64,0"/><path class="cls-4" d="M73.84,2.66c-1,0-1.72.26-1.92.78-.3.79.69,1.92,2.32,2.84a21.68,21.68,0,0,1,2.52-.42c-.28-.24-.56-.5-.84-.77a10.22,10.22,0,0,1-1.8-2.42h-.28M81,6.21a.77.77,0,0,1,0,.21.19.19,0,0,1,.06.07A1.14,1.14,0,0,0,81,6.21"/><g class="cls-5"><rect class="cls-6" x="74.25" y="5.86" width="6.82" height="1.82"/></g><path class="cls-7" d="M74.12,2.67a10.22,10.22,0,0,0,1.8,2.42c.28.27.56.53.84.77a13.2,13.2,0,0,1,1.6-.1A3.71,3.71,0,0,1,81,6.42a1.41,1.41,0,0,0,0-.2c-.33-1-1.83-2.11-3.83-2.87a10.21,10.21,0,0,0-3-.68"/><g class="cls-8"><rect class="cls-9" x="76.76" y="5.76" width="4.23" height="1.67"/></g><path d="M81.65,5.05a1,1,0,1,0,1.24.78,1,1,0,0,0-1.24-.78"/><g class="cls-10"><rect class="cls-11" x="69.91" y="9.86" width="3.47" height="3.41"/></g><path class="cls-12" d="M72.72,11.45a1.08,1.08,0,0,1-2.16.17,1.08,1.08,0,0,1,2.16-.17"/><g class="cls-13"><rect class="cls-14" x="70.59" y="10.52" width="2.11" height="2.06"/></g><polygon class="cls-12" points="6.3 12.83 23.95 12.83 23 17.53 10.95 17.53 9.24 26.55 20.44 26.55 19.54 31.2 8.34 31.2 5.78 44.82 0.23 44.82 6.3 12.83"/><path class="cls-12" d="M26.33,15.44a3.28,3.28,0,0,1,3.32-3.37,2.85,2.85,0,0,1,2.94,3,3.3,3.3,0,0,1-3.42,3.33,2.74,2.74,0,0,1-2.84-3M21.06,44.82l4.36-23.11H31L26.56,44.82Z"/><path class="cls-12" d="M35.53,21.71h5.09S40,24.89,39.8,26.6h.14c1.57-3.14,4.09-5.41,7.27-5.41a9.52,9.52,0,0,1,1.18.09L47.3,26.69a6.3,6.3,0,0,0-1-.09c-3.94,0-6.46,4-7.36,8.92l-1.75,9.3H31.64Z"/><path class="cls-12" d="M60.3,25.31c-3.46,0-5.74,3.09-6.41,5.89,5.7.1,9.35-.71,9.35-3.46,0-1.52-1.18-2.43-2.94-2.43m5.27,18.18a18.5,18.5,0,0,1-8.16,1.8c-6.41,0-9.49-3.89-9.49-9.53,0-7,5.12-14.57,13.09-14.57,4.56,0,7.45,2.65,7.45,6.5,0,5.93-6.21,7.83-15.14,7.64a6.43,6.43,0,0,0,.62,3.27A5.1,5.1,0,0,0,58.69,41a13.71,13.71,0,0,0,6.36-1.52Z"/><path class="cls-12" d="M86.44,15c-3.28.09-5,2.58-5.5,5.62l-.19,1.05h4.37L84.31,26H80L76.39,44.82H70.88L74.44,26h-3l.8-4.27h3l.19-1a12.41,12.41,0,0,1,4.46-7.94A12.74,12.74,0,0,1,87.62,10Z"/><path class="cls-12" d="M103.63,21.71l1.8,11.15c.43,2.47.71,4.18.91,5.74h.09c.57-1.42,1.14-3,2.23-5.5l5-11.39h5.83l-8.45,17c-2.8,5.65-5.36,9.74-8.44,12.73a15.35,15.35,0,0,1-7.12,4L94.19,50.7a14.34,14.34,0,0,0,4.08-2,14.93,14.93,0,0,0,4.08-4.6,1.44,1.44,0,0,0,.09-1.1l-4.6-21.3Z"/><path class="cls-12" d="M5.87,51.76l-.8.19a2.27,2.27,0,0,0-.6-1.48,1.66,1.66,0,0,0-1.11-.41,1.78,1.78,0,0,0-1.26.5,3.56,3.56,0,0,0-.84,1.5,5.9,5.9,0,0,0-.33,1.86,2.59,2.59,0,0,0,.48,1.68,1.55,1.55,0,0,0,1.27.59c.84,0,1.49-.57,2-1.71l.74.27a2.83,2.83,0,0,1-2.73,2.18,2.34,2.34,0,0,1-2-.9A3.65,3.65,0,0,1,0,53.74a5.34,5.34,0,0,1,.93-3,2.81,2.81,0,0,1,2.41-1.37A2.53,2.53,0,0,1,5,49.91a2.68,2.68,0,0,1,.87,1.85"/><path class="cls-12" d="M9.75,53.94l-.56-3.36L7.55,53.94Zm.1.73H7.19L6.14,56.81H5.32l3.58-7.3h1l1.27,7.3h-.94Z"/><path class="cls-12" d="M13.71,52.88h1.67c1.34,0,2-.49,2-1.45s-.53-1.21-1.57-1.21H14.15Zm2,.73H13.58l-.53,3.2h-.89l1.21-7.3h2.28a4,4,0,0,1,1.54.22,1.7,1.7,0,0,1,.8.67,1.82,1.82,0,0,1,.3,1.05,2,2,0,0,1-.46,1.31,1.94,1.94,0,0,1-1.23.69l1,3.36h-.95Z"/><path class="cls-12" d="M23.17,52.88h1.68c1.34,0,2-.49,2-1.45s-.53-1.21-1.57-1.21H23.62Zm2,.73H23.05l-.53,3.2h-.89l1.21-7.3h2.29a4,4,0,0,1,1.53.22,1.77,1.77,0,0,1,.81.67,1.89,1.89,0,0,1,.3,1.05,2,2,0,0,1-.47,1.31,1.91,1.91,0,0,1-1.23.69l1,3.36h-1Z"/><polygon class="cls-12" points="28.46 56.81 29.68 49.51 34.23 49.51 34.1 50.23 30.45 50.23 30.05 52.63 33.18 52.63 33.06 53.35 29.92 53.35 29.48 56.03 33.42 56.03 33.3 56.81 28.46 56.81"/><polygon class="cls-12" points="39.82 56.81 39.11 56.81 36.25 50.57 35.2 56.81 34.48 56.81 35.7 49.51 36.69 49.51 39.35 55.33 40.32 49.51 41.04 49.51 39.82 56.81"/><polygon class="cls-12" points="46.96 50.25 44.85 50.25 43.75 56.81 42.86 56.81 43.95 50.25 41.84 50.25 41.96 49.51 47.09 49.51 46.96 50.25"/><path class="cls-12" d="M49.74,53.94l-.56-3.36-1.64,3.36Zm.1.73H47.18l-1,2.14H45.3l3.59-7.3h1l1.27,7.3h-.94Z"/><polygon class="cls-12" points="56.65 56.81 52.14 56.81 53.36 49.51 54.25 49.51 53.16 56.03 56.78 56.03 56.65 56.81"/><path class="cls-12" d="M127.46,25.26l-.1-1.59c0-.21,0-.47,0-.76h0c-.07.24-.14.56-.21.81l-.5,1.5h-.55l-.49-1.54c0-.21-.12-.53-.18-.77h0c0,.25,0,.51,0,.76l-.09,1.59h-.52l.2-2.7h.81l.47,1.32c.06.21.11.41.17.69h0c.06-.25.13-.48.18-.68l.47-1.33h.78l.2,2.7Zm-2.92-2.7V23h-.86v2.26h-.54V23h-.86v-.44Z"/><polygon class="cls-12" points="97.27 10.13 90.72 44.83 85.17 44.83 91.74 10.13 97.27 10.13"/></g></g></svg>